<mxfile host="app.diagrams.net" modified="2020-07-21T01:23:30.941Z" agent="5.0 (Windows NT 10.0; Win64; x64) AppleWebKit/537.36 (KHTML, like Gecko) Chrome/84.0.4147.89 Safari/537.36" etag="KhWPimuJfpyexTAagoT2" version="13.4.9" type="github">
  <diagram id="6a731a19-8d31-9384-78a2-239565b7b9f0" name="Page-1">
    <mxGraphModel dx="1422" dy="1941" grid="1" gridSize="10" guides="1" tooltips="1" connect="1" arrows="1" fold="1" page="1" pageScale="1" pageWidth="827" pageHeight="1169" background="#ffffff" math="0" shadow="0">
      <root>
        <mxCell id="0" />
        <mxCell id="1" parent="0" />
        <mxCell id="7P367LNqwWd6nnZPo9oB-2257" value="开始" style="rounded=0;whiteSpace=wrap;html=1;" vertex="1" parent="1">
          <mxGeometry x="690" y="-370" width="120" height="60" as="geometry" />
        </mxCell>
        <mxCell id="7P367LNqwWd6nnZPo9oB-2258" value="判断" style="rhombus;whiteSpace=wrap;html=1;" vertex="1" parent="1">
          <mxGeometry x="710" y="-260" width="80" height="80" as="geometry" />
        </mxCell>
        <mxCell id="7P367LNqwWd6nnZPo9oB-2260" value="" style="endArrow=classic;html=1;" edge="1" parent="1" target="7P367LNqwWd6nnZPo9oB-2258">
          <mxGeometry width="50" height="50" relative="1" as="geometry">
            <mxPoint x="750" y="-310" as="sourcePoint" />
            <mxPoint x="920" y="-270" as="targetPoint" />
          </mxGeometry>
        </mxCell>
      </root>
    </mxGraphModel>
  </diagram>
</mxfile>
